<svg width="10" height="10" viewBox="0 0 10 10" fill="none" xmlns="http://www.w3.org/2000/svg">
<path fill-rule="evenodd" clip-rule="evenodd" d="M0 10V0H0.769231V10H0Z" fill="black"/>
<path fill-rule="evenodd" clip-rule="evenodd" d="M10 10H0V9.23077H10V10Z" fill="black"/>
<path fill-rule="evenodd" clip-rule="evenodd" d="M4.55083 9.23077C4.49315 8.88952 4.39713 8.55503 4.26406 8.23377C4.03211 7.6738 3.69215 7.16501 3.26357 6.73643C2.83499 6.30785 2.3262 5.96789 1.76623 5.73594C1.44497 5.60287 1.11048 5.50685 0.769231 5.44917L0.769231 9.23077H4.55083ZM5.32939 9.23077C5.36608 9.48496 5.38462 9.74202 5.38462 10H0V4.61538C0.257979 4.61538 0.515036 4.63392 0.769231 4.67061C1.21178 4.73449 1.64565 4.85339 2.0606 5.02526C2.71389 5.29587 3.30749 5.69249 3.8075 6.1925C4.30751 6.69251 4.70413 7.28611 4.97474 7.9394C5.14661 8.35435 5.26551 8.78822 5.32939 9.23077Z" fill="black"/>
</svg>
