<svg width="14" height="14" viewBox="0 0 14 14" fill="none" xmlns="http://www.w3.org/2000/svg">
<path d="M7.49157 8.52502H6.45126C6.45499 8.16706 6.48668 7.87436 6.54634 7.64691C6.60973 7.41573 6.71227 7.20506 6.85396 7.0149C6.99565 6.82473 7.18395 6.60847 7.41886 6.3661C7.59038 6.19085 7.74698 6.02679 7.88867 5.87392C8.03409 5.71731 8.15154 5.54952 8.24103 5.37054C8.33052 5.18784 8.37527 4.96971 8.37527 4.71616C8.37527 4.45888 8.32866 4.23702 8.23544 4.05058C8.14595 3.86415 8.01172 3.72059 7.83274 3.61992C7.65749 3.51925 7.43936 3.46891 7.17836 3.46891C6.96209 3.46891 6.75701 3.50806 6.56312 3.58636C6.36923 3.66466 6.21262 3.78585 6.09331 3.94991C5.97399 4.11024 5.91246 4.32091 5.90874 4.58192H4.87402C4.88148 4.16058 4.98588 3.7989 5.18723 3.49687C5.39231 3.19485 5.66824 2.96367 6.015 2.80334C6.36177 2.643 6.74956 2.56284 7.17836 2.56284C7.6519 2.56284 8.0546 2.6486 8.38645 2.82012C8.72203 2.99164 8.97745 3.23773 9.1527 3.5584C9.32795 3.87534 9.41557 4.25193 9.41557 4.68819C9.41557 5.02377 9.34659 5.33325 9.20863 5.61664C9.0744 5.89629 8.90101 6.15916 8.68848 6.40525C8.47594 6.65135 8.25036 6.88626 8.01172 7.10998C7.80664 7.30014 7.66868 7.51454 7.59783 7.75318C7.52699 7.99181 7.49157 8.24909 7.49157 8.52502ZM6.40652 10.298C6.40652 10.1302 6.45872 9.98853 6.56312 9.87294C6.66752 9.75735 6.81854 9.69955 7.01616 9.69955C7.21751 9.69955 7.37038 9.75735 7.47479 9.87294C7.57919 9.98853 7.63139 10.1302 7.63139 10.298C7.63139 10.4583 7.57919 10.5963 7.47479 10.7119C7.37038 10.8275 7.21751 10.8853 7.01616 10.8853C6.81854 10.8853 6.66752 10.8275 6.56312 10.7119C6.45872 10.5963 6.40652 10.4583 6.40652 10.298Z" fill="#BABABA"/>
<circle cx="7" cy="7" r="6.5" stroke="#BABABA"/>
</svg>
