<svg width="171" height="83" viewBox="0 0 171 83" fill="none" xmlns="http://www.w3.org/2000/svg">
<rect x="17" y="5" width="141" height="20" fill="#FFC107"/>
<circle cx="156" cy="15" r="13.5" fill="#6B6B6B" stroke="black" stroke-width="3"/>
<rect x="5" y="15" width="20" height="53" fill="#3F51B5"/>
<circle cx="15" cy="15" r="13.5" fill="#6B6B6B" stroke="black" stroke-width="3"/>
<circle cx="15" cy="68" r="13.5" fill="#6B6B6B" stroke="black" stroke-width="3"/>
<path d="M37.0627 63C35.9427 63 35.3827 62.44 35.3827 61.32V37.56C35.3827 36.44 35.9427 35.88 37.0627 35.88H46.4227C48.8627 35.88 50.7293 36.5333 52.0227 37.84C53.3293 39.1333 53.9827 41 53.9827 43.44V44.64C53.9827 47.08 53.3293 48.9533 52.0227 50.26C50.7293 51.5533 48.8627 52.2 46.4227 52.2H38.7427V61.32C38.7427 62.44 38.1827 63 37.0627 63ZM38.7427 48.84H46.4227C47.9427 48.84 49.0227 48.52 49.6627 47.88C50.3027 47.24 50.6227 46.16 50.6227 44.64V43.44C50.6227 41.9333 50.3027 40.86 49.6627 40.22C49.0227 39.5667 47.9427 39.24 46.4227 39.24H38.7427V48.84ZM61.5939 63C60.4739 63 59.9139 62.44 59.9139 61.32V37.56C59.9139 36.44 60.4739 35.88 61.5939 35.88C62.3272 35.88 62.9406 36.24 63.4339 36.96L72.8739 51.16L72.1539 51.28L81.6739 36.96C82.1272 36.24 82.8072 35.88 83.7139 35.88C84.6206 35.88 85.0739 36.44 85.0739 37.56V61.32C85.0739 62.44 84.5139 63 83.3939 63C82.2739 63 81.7139 62.44 81.7139 61.32V40.92L82.7539 41.28L74.3539 53.64C73.8606 54.36 73.1806 54.72 72.3139 54.72C71.7139 54.72 71.1672 54.36 70.6739 53.64L62.2739 41.28L63.2739 41.56V61.32C63.2739 62.44 62.7139 63 61.5939 63ZM95.0705 63C93.9505 63 93.3905 62.44 93.3905 61.32V37.56C93.3905 36.44 93.9505 35.88 95.0705 35.88C96.1905 35.88 96.7505 36.44 96.7505 37.56V47.06L106.95 36.52C107.724 35.6933 108.51 35.68 109.31 36.48C110.137 37.2533 110.15 38.04 109.35 38.84L100.85 47.62L110.87 60.08C111.55 60.9733 111.47 61.76 110.63 62.44C109.764 63.1467 108.977 63.0667 108.27 62.2L98.4905 50.08L96.7505 51.88V61.32C96.7505 62.44 96.1905 63 95.0705 63ZM123.647 63C121.367 63 119.587 62.54 118.307 61.62C117.04 60.7 116.247 59.28 115.927 57.36C115.874 56.7733 115.994 56.3333 116.287 56.04C116.58 55.7467 117.007 55.6 117.567 55.6C118.127 55.6 118.534 55.7333 118.787 56C119.054 56.2667 119.234 56.68 119.327 57.24C119.527 58.16 119.954 58.7933 120.607 59.14C121.274 59.4733 122.287 59.64 123.647 59.64H129.407C131.127 59.64 132.294 59.3333 132.907 58.72C133.534 58.0933 133.847 56.9333 133.847 55.24C133.847 53.52 133.527 52.3467 132.887 51.72C132.247 51.08 131.087 50.76 129.407 50.76H124.447C121.927 50.76 120.054 50.1467 118.827 48.92C117.614 47.68 117.007 45.8 117.007 43.28C117.007 40.7733 117.607 38.9133 118.807 37.7C120.02 36.4867 121.887 35.88 124.407 35.88H129.167C131.287 35.88 132.947 36.3133 134.147 37.18C135.36 38.0467 136.127 39.3733 136.447 41.16C136.527 41.7333 136.42 42.1733 136.127 42.48C135.834 42.7733 135.394 42.92 134.807 42.92C134.274 42.92 133.874 42.78 133.607 42.5C133.34 42.22 133.167 41.8133 133.087 41.28C132.874 40.4933 132.467 39.96 131.867 39.68C131.267 39.3867 130.367 39.24 129.167 39.24H124.407C122.807 39.24 121.734 39.5267 121.187 40.1C120.64 40.66 120.367 41.72 120.367 43.28C120.367 44.8533 120.647 45.9333 121.207 46.52C121.767 47.1067 122.847 47.4 124.447 47.4H129.407C132.034 47.4 133.987 48.04 135.267 49.32C136.56 50.6 137.207 52.5733 137.207 55.24C137.207 57.8933 136.567 59.8533 135.287 61.12C134.007 62.3733 132.047 63 129.407 63H123.647ZM151.562 42.28C151.562 41.3467 152.029 40.88 152.962 40.88C153.896 40.88 154.362 41.3467 154.362 42.28V57.12C154.362 58.0533 153.896 58.52 152.962 58.52C152.029 58.52 151.562 58.0533 151.562 57.12V42.28ZM145.162 51.32C144.229 51.32 143.762 50.8533 143.762 49.92C143.762 48.9867 144.229 48.52 145.162 48.52H160.002C160.936 48.52 161.402 48.9867 161.402 49.92C161.402 50.8533 160.936 51.32 160.002 51.32H145.162ZM145.162 51.32C144.229 51.32 143.762 50.8533 143.762 49.92C143.762 48.9867 144.229 48.52 145.162 48.52H160.002C160.936 48.52 161.402 48.9867 161.402 49.92C161.402 50.8533 160.936 51.32 160.002 51.32H145.162Z" fill="black"/>
</svg>
